<?xml version="1.0" encoding="UTF-8"?>
<!DOCTYPE svg PUBLIC "-//W3C//DTD SVG 1.0//EN" "http://www.w3.org/TR/2001/REC-SVG-20010904/DTD/svg10.dtd">
<svg width="1000" height="204" xmlns="http://www.w3.org/2000/svg">
<rect width="1000" height="204" style="fill:none;stroke-width:1;stroke:rgb(0,0,0);"/>
<g font-family="monospace" style="font-size:24">
<text>
<tspan x="50" y="24" textLength="36">Nam</tspan>
<tspan x="48" y="24" textLength="0"/>
<tspan x="98" y="24" textLength="96">pharetra</tspan>
<tspan x="156" y="24" textLength="0"/>
<tspan x="206" y="24" textLength="84">sodales</tspan>
<tspan x="252" y="24" textLength="0"/>
<tspan x="302" y="24" textLength="120">tristique.</tspan>
<tspan x="384" y="24" textLength="0"/>
<tspan x="434" y="24" textLength="36">Sed</tspan>
<tspan x="432" y="24" textLength="0"/>
<tspan x="482" y="24" textLength="36">sit</tspan>
<tspan x="480" y="24" textLength="0"/>
<tspan x="530" y="24" textLength="48">amet</tspan>
<tspan x="540" y="24" textLength="0"/>
<tspan x="590" y="24" textLength="36">leo</tspan>
<tspan x="588" y="24" textLength="0"/>
<tspan x="638" y="24" textLength="36">sit</tspan>
<tspan x="636" y="24" textLength="0"/>
<tspan x="686" y="24" textLength="48">amet</tspan>
<tspan x="696" y="24" textLength="0"/>
<tspan x="746" y="24" textLength="24">mi</tspan>
<tspan x="732" y="24" textLength="0"/>
<tspan x="782" y="24" textLength="72">auctor</tspan>
<tspan x="816" y="24" textLength="0"/>
<tspan x="866" y="24" textLength="84">mollis.</tspan>
</text>
<text>
<tspan x="0" y="48" textLength="0"/>
<tspan x="74" y="48" textLength="96">Praesent</tspan>
<tspan x="108" y="48" textLength="0"/>
<tspan x="182" y="48" textLength="84">iaculis</tspan>
<tspan x="204" y="48" textLength="0"/>
<tspan x="278" y="48" textLength="48">urna</tspan>
<tspan x="264" y="48" textLength="0"/>
<tspan x="338" y="48" textLength="60">ante,</tspan>
<tspan x="336" y="48" textLength="0"/>
<tspan x="410" y="48" textLength="48">eget</tspan>
<tspan x="396" y="48" textLength="0"/>
<tspan x="470" y="48" textLength="108">tincidunt</tspan>
<tspan x="516" y="48" textLength="0"/>
<tspan x="590" y="48" textLength="60">felis</tspan>
<tspan x="588" y="48" textLength="0"/>
<tspan x="662" y="48" textLength="84">commodo</tspan>
<tspan x="684" y="48" textLength="0"/>
<tspan x="758" y="48" textLength="48">nec.</tspan>
<tspan x="744" y="48" textLength="0"/>
<tspan x="818" y="48" textLength="108">Curabitur</tspan>
</text>
<text>
<tspan x="0" y="72" textLength="0"/>
<tspan x="56" y="72" textLength="84">dictum,</tspan>
<tspan x="96" y="72" textLength="0"/>
<tspan x="152" y="72" textLength="60">nulla</tspan>
<tspan x="168" y="72" textLength="0"/>
<tspan x="224" y="72" textLength="24">ut</tspan>
<tspan x="204" y="72" textLength="0"/>
<tspan x="260" y="72" textLength="84">aliquet</tspan>
<tspan x="300" y="72" textLength="0"/>
<tspan x="356" y="72" textLength="108">volutpat,</tspan>
<tspan x="420" y="72" textLength="0"/>
<tspan x="476" y="72" textLength="60">neque</tspan>
<tspan x="492" y="72" textLength="0"/>
<tspan x="548" y="72" textLength="72">sapien</tspan>
<tspan x="576" y="72" textLength="0"/>
<tspan x="632" y="72" textLength="84">aliquet</tspan>
<tspan x="672" y="72" textLength="0"/>
<tspan x="728" y="72" textLength="84">mauris,</tspan>
<tspan x="768" y="72" textLength="0"/>
<tspan x="824" y="72" textLength="36">non</tspan>
<tspan x="816" y="72" textLength="0"/>
<tspan x="872" y="72" textLength="72">cursus</tspan>
</text>
<text>
<tspan x="0" y="96" textLength="0"/>
<tspan x="86" y="96" textLength="48">elit</tspan>
<tspan x="60" y="96" textLength="0"/>
<tspan x="146" y="96" textLength="24">ex</tspan>
<tspan x="96" y="96" textLength="0"/>
<tspan x="182" y="96" textLength="36">non</tspan>
<tspan x="144" y="96" textLength="0"/>
<tspan x="230" y="96" textLength="84">tortor.</tspan>
<tspan x="240" y="96" textLength="0"/>
<tspan x="326" y="96" textLength="108">Phasellus</tspan>
<tspan x="360" y="96" textLength="0"/>
<tspan x="446" y="96" textLength="36">dui</tspan>
<tspan x="408" y="96" textLength="0"/>
<tspan x="494" y="96" textLength="60">odio,</tspan>
<tspan x="480" y="96" textLength="0"/>
<tspan x="566" y="96" textLength="84">dapibus</tspan>
<tspan x="576" y="96" textLength="0"/>
<tspan x="662" y="96" textLength="48">eget</tspan>
<tspan x="636" y="96" textLength="0"/>
<tspan x="722" y="96" textLength="48">odio</tspan>
<tspan x="696" y="96" textLength="0"/>
<tspan x="782" y="96" textLength="36">in,</tspan>
<tspan x="744" y="96" textLength="0"/>
<tspan x="830" y="96" textLength="84">dapibus</tspan>
</text>
<text>
<tspan x="0" y="120" textLength="0"/>
<tspan x="80" y="120" textLength="96">faucibus</tspan>
<tspan x="108" y="120" textLength="0"/>
<tspan x="188" y="120" textLength="72">lacus.</tspan>
<tspan x="192" y="120" textLength="0"/>
<tspan x="272" y="120" textLength="36">Sed</tspan>
<tspan x="240" y="120" textLength="0"/>
<tspan x="320" y="120" textLength="24">ac</tspan>
<tspan x="276" y="120" textLength="0"/>
<tspan x="356" y="120" textLength="96">ultrices</tspan>
<tspan x="384" y="120" textLength="0"/>
<tspan x="464" y="120" textLength="60">orci.</tspan>
<tspan x="456" y="120" textLength="0"/>
<tspan x="536" y="120" textLength="24">In</tspan>
<tspan x="492" y="120" textLength="0"/>
<tspan x="572" y="120" textLength="24">et</tspan>
<tspan x="528" y="120" textLength="0"/>
<tspan x="608" y="120" textLength="48">eros</tspan>
<tspan x="588" y="120" textLength="0"/>
<tspan x="668" y="120" textLength="48">quis</tspan>
<tspan x="648" y="120" textLength="0"/>
<tspan x="728" y="120" textLength="72">mauris</tspan>
<tspan x="732" y="120" textLength="0"/>
<tspan x="812" y="120" textLength="108">convallis</tspan>
</text>
<text>
<tspan x="0" y="144" textLength="0"/>
<tspan x="56" y="144" textLength="120">fringilla.</tspan>
<tspan x="132" y="144" textLength="0"/>
<tspan x="188" y="144" textLength="24">In</tspan>
<tspan x="168" y="144" textLength="0"/>
<tspan x="224" y="144" textLength="108">dignissim</tspan>
<tspan x="288" y="144" textLength="0"/>
<tspan x="344" y="144" textLength="60">porta</tspan>
<tspan x="360" y="144" textLength="0"/>
<tspan x="416" y="144" textLength="60">orci,</tspan>
<tspan x="432" y="144" textLength="0"/>
<tspan x="488" y="144" textLength="36">sit</tspan>
<tspan x="480" y="144" textLength="0"/>
<tspan x="536" y="144" textLength="48">amet</tspan>
<tspan x="540" y="144" textLength="0"/>
<tspan x="596" y="144" textLength="84">sodales</tspan>
<tspan x="636" y="144" textLength="0"/>
<tspan x="692" y="144" textLength="48">erat</tspan>
<tspan x="696" y="144" textLength="0"/>
<tspan x="752" y="144" textLength="84">maximus</tspan>
<tspan x="792" y="144" textLength="0"/>
<tspan x="848" y="144" textLength="36">eu.</tspan>
<tspan x="840" y="144" textLength="0"/>
<tspan x="896" y="144" textLength="48">Duis</tspan>
</text>
<text>
<tspan x="0" y="168" textLength="0"/>
<tspan x="56" y="168" textLength="108">fermentum</tspan>
<tspan x="120" y="168" textLength="0"/>
<tspan x="176" y="168" textLength="96">bibendum</tspan>
<tspan x="228" y="168" textLength="0"/>
<tspan x="284" y="168" textLength="60">augue</tspan>
<tspan x="300" y="168" textLength="0"/>
<tspan x="356" y="168" textLength="36">nec</tspan>
<tspan x="348" y="168" textLength="0"/>
<tspan x="404" y="168" textLength="96">feugiat.</tspan>
<tspan x="456" y="168" textLength="0"/>
<tspan x="512" y="168" textLength="60">Fusce</tspan>
<tspan x="528" y="168" textLength="0"/>
<tspan x="584" y="168" textLength="12">a</tspan>
<tspan x="552" y="168" textLength="0"/>
<tspan x="608" y="168" textLength="96">placerat</tspan>
<tspan x="660" y="168" textLength="0"/>
<tspan x="716" y="168" textLength="72">nulla.</tspan>
<tspan x="744" y="168" textLength="0"/>
<tspan x="800" y="168" textLength="84">Integer</tspan>
<tspan x="840" y="168" textLength="0"/>
<tspan x="896" y="168" textLength="48">eget</tspan>
</text>
<text>
<tspan x="0" y="192" textLength="0"/>
<tspan x="50" y="192" textLength="96">vehicula</tspan>
<tspan x="108" y="192" textLength="0"/>
<tspan x="158" y="192" textLength="60">ante.</tspan>
<tspan x="180" y="192" textLength="0"/>
<tspan x="230" y="192" textLength="84">Aliquam</tspan>
<tspan x="276" y="192" textLength="0"/>
<tspan x="326" y="192" textLength="96">suscipit</tspan>
<tspan x="384" y="192" textLength="0"/>
<tspan x="434" y="192" textLength="48">enim</tspan>
<tspan x="444" y="192" textLength="0"/>
<tspan x="494" y="192" textLength="72">purus,</tspan>
<tspan x="528" y="192" textLength="0"/>
<tspan x="578" y="192" textLength="60">vitae</tspan>
<tspan x="600" y="192" textLength="0"/>
<tspan x="650" y="192" textLength="72">mattis</tspan>
<tspan x="684" y="192" textLength="0"/>
<tspan x="734" y="192" textLength="72">lectus</tspan>
<tspan x="768" y="192" textLength="0"/>
<tspan x="818" y="192" textLength="72">cursus</tspan>
<tspan x="852" y="192" textLength="0"/>
<tspan x="902" y="192" textLength="48">sed.</tspan>
</text>
</g>
</svg>
